<svg t="1778053205638" class="icon" viewBox="0 0 1024 1024" version="1.1" xmlns="http://www.w3.org/2000/svg" p-id="5701" width="200" height="200"><path d="M512.008 81.858c-237.562 0-430.14 192.586-430.14 430.146 0 237.552 192.578 430.136 430.14 430.136 237.546 0 430.132-192.584 430.132-430.136 0-237.56-192.586-430.146-430.132-430.146z" fill="#EDF3FC" p-id="5702"></path><path d="M512.008 2C230.786 2 2 230.788 2 512.004S230.786 1022 512.008 1022C793.222 1022 1022 793.22 1022 512.004S793.222 2 512.008 2z m0 1003.664c-272.21 0-493.664-221.456-493.664-493.66C18.344 239.796 239.796 18.34 512.008 18.34c272.204 0 493.648 221.458 493.648 493.664 0 272.204-221.446 493.66-493.648 493.66z" fill="#EDF3FC" p-id="5703"></path><path d="M319 493.046h100v191.826h-100z" fill="#FFBE1B" p-id="5704"></path><path d="M809 684.872h-544V289.128a10 10 0 1 0-20 0v405.746a10 10 0 0 0 10 10h554a10 10 0 1 0 0-20.002z" fill="#330D84" p-id="5705"></path><path d="M809 684.872h-544V289.128a10 10 0 1 0-20 0v405.746a10 10 0 0 0 10 10h554a10 10 0 1 0 0-20.002z" fill="#5932AE" p-id="5706"></path><path d="M615 393.046h100v291.826h-100z" fill="#5D8EF9" p-id="5707"></path><path d="M467 333.046h100v351.828h-100zM839.294 350.316a66.494 66.494 0 0 1-48.344-48.342l-1.022-4.056-1.02 4.056a66.498 66.498 0 0 1-48.354 48.342l-4.05 1.02 4.05 1.018a66.5 66.5 0 0 1 48.354 48.352l1.02 4.06 1.022-4.06a66.504 66.504 0 0 1 48.344-48.352l4.066-1.018-4.066-1.02zM881.826 468.128a57.788 57.788 0 0 1-42.01-42.008l-0.886-3.526-0.886 3.526a57.786 57.786 0 0 1-42.018 42.008l-3.52 0.886 3.52 0.882a57.792 57.792 0 0 1 42.018 42.016l0.886 3.528 0.886-3.528a57.796 57.796 0 0 1 42.01-42.016l3.534-0.882-3.534-0.886z" fill="#330D84" p-id="5708"></path><path d="M516.362 808.388a66.498 66.498 0 0 1-48.344-48.342l-1.022-4.056-1.02 4.056a66.498 66.498 0 0 1-48.354 48.342l-4.05 1.02 4.05 1.018a66.5 66.5 0 0 1 48.354 48.35l1.02 4.062 1.022-4.062a66.504 66.504 0 0 1 48.344-48.35l4.066-1.018-4.066-1.02zM361.176 764.97a44.614 44.614 0 0 1-32.438-32.434l-0.684-2.722-0.684 2.722a44.614 44.614 0 0 1-32.446 32.434l-2.716 0.684 2.716 0.684a44.62 44.62 0 0 1 32.446 32.442l0.684 2.724 0.684-2.724a44.62 44.62 0 0 1 32.438-32.442l2.726-0.684-2.726-0.684z" fill="#5D8EF9" p-id="5709"></path><path d="M449.128 235.55a66.946 66.946 0 0 1-48.674-48.674l-1.03-4.082-1.028 4.082a66.956 66.956 0 0 1-48.686 48.674l-4.076 1.026 4.076 1.026a66.954 66.954 0 0 1 48.686 48.68l1.028 4.088 1.03-4.088a66.948 66.948 0 0 1 48.674-48.68l4.092-1.026-4.092-1.026z" fill="#FFBE1B" p-id="5710"></path></svg>
